<svg id="Layer_2" data-name="Layer 2" xmlns="http://www.w3.org/2000/svg" viewBox="0 0 648.49 387.58"><defs><style>.cls-1{fill:#98bf5d;}.cls-2{fill:#617c32;opacity:0.3;}.cls-3{fill:#76949e;}.cls-4{fill:#fff;}.cls-5{fill:#d1d1d1;}.cls-6{fill:#ffe3bd;}.cls-7{fill:#cf9e76;}.cls-8{fill:#91aeb5;}.cls-9{fill:#fcd3a7;}.cls-10{fill:#292929;}.cls-11{fill:#f4c9a2;}.cls-12{fill:#888;}.cls-13{fill:#c2c2c2;}.cls-14{fill:#8285a8;}.cls-15{fill:#8b372f;}.cls-16{fill:#722d26;}.cls-17{fill:#a03f35;}.cls-18{fill:#b9493e;}.cls-19{fill:#ecc19c;}.cls-20{fill:#d35345;}.cls-21{fill:#e5b998;}.cls-22{fill:#68868e;}</style></defs><title>woman-at-desk-2</title><path class="cls-1" d="M252.13,379.57h65.54A216.18,216.18,0,0,1,124.61,133.49,216.26,216.26,0,0,0,252.13,379.57Z"/><path class="cls-1" d="M461.58,342.22a215.22,215.22,0,0,1-101.69,37.35h59.45A216.48,216.48,0,0,0,549.72,211,215.44,215.44,0,0,1,461.58,342.22Z"/><path class="cls-1" d="M601.28,211.09H512.46a10.94,10.94,0,0,1,.24-21.88H568l26.84-29.6c25.81-28.46,9.68-74.21-28.28-80.18L155.86,14.85c-38.24-6-67.67,33.14-51.26,68.2L243.36,379.57h152L528.34,233h72.94A10.94,10.94,0,0,0,601.28,211.09Z"/><path class="cls-1" d="M637.55,233h-7.91A10.94,10.94,0,0,1,618.69,222h0a10.94,10.94,0,0,1,10.94-10.94h7.91A10.94,10.94,0,0,1,648.49,222h0A10.94,10.94,0,0,1,637.55,233Z"/><circle class="cls-2" cx="223.93" cy="160.86" r="20.6"/><path class="cls-2" d="M459.48,253.88L431.8,240.51l-1.41-8.26c0.15-.57.3-1.14,0.44-1.71,0.1-.42.19-0.84,0.28-1.26s0.23-1.05.32-1.58v0l0.53-.35a47.07,47.07,0,0,1,4.75,3.37c2.59,2.13,5.54,8.14,5.54,8.14a19.47,19.47,0,0,0-2.69-8.91,13.32,13.32,0,0,0-5-4.49h0a19.48,19.48,0,0,1,6.15,1.29c6,2.3,11.9,11.33,11.9,11.33s-1-8.18-6.7-12.91a30.94,30.94,0,0,0-6.43-3.85,79,79,0,0,0,14.61-17.77c1-1.66,1.92-3.39,2.8-5.21a62.71,62.71,0,0,0,4.33-11.85,59.78,59.78,0,0,0,1.66-10.1,61,61,0,0,0,.12-7.3,64.7,64.7,0,0,0-.81-7.75q-0.37-2.24-.82-4.38c-0.14-.67-0.3-1.31-0.45-2s-0.33-1.48-.51-2.19c-0.22-.87-0.47-1.71-0.71-2.56-0.13-.46-0.25-0.93-0.38-1.38-0.3-1-.62-2-0.94-2.91-0.09-.28-0.18-0.57-0.27-0.84-0.37-1.06-.75-2.08-1.15-3.09l-0.17-.46c-0.43-1.09-.88-2.14-1.34-3.17l-0.08-.19q-0.72-1.62-1.49-3.16l0,0c-0.22-.44-0.44-0.87-0.66-1.29,0.54-.28,1.07-0.56,1.57-0.88s1.17-.77,1.7-1.19a22.54,22.54,0,0,0,2.89-2.67c0.43-.47.82-0.94,1.2-1.42a27.2,27.2,0,0,0,2.73-4.29,29.78,29.78,0,0,0,1.94-4.73,19.42,19.42,0,0,0,.52-2h0a19.81,19.81,0,0,1-2.63,3.3,20.09,20.09,0,0,1-4,3.2,33.89,33.89,0,0,1-4.48,2.25,30.45,30.45,0,0,0,3.29-3.51c0.58-.74,1.1-1.49,1.6-2.26l0.41-.65Q460.5,118,461,117c0.09-.18.2-0.36,0.29-0.54q0.57-1.16,1-2.36c0.1-.26.19-0.52,0.28-0.78q0.31-.85.56-1.72c0.09-.31.19-0.62,0.27-0.94,0.18-.7.34-1.41,0.47-2.13,0.08-.41.13-0.82,0.19-1.23s0.13-.94.17-1.41,0.07-.89.1-1.33,0-.73,0-1.09q0-1.45-.1-2.9c0-.17,0-0.35,0-0.52-0.06-.57-0.14-1.13-0.22-1.7,0-.2-0.07-0.4-0.1-0.6a30.43,30.43,0,0,0-1.49-5.46l-0.11-.3c-0.24-.61-0.49-1.21-0.76-1.8h0a30.21,30.21,0,0,0-8.74-11.06q-1.22-1-2.5-1.77h0c-0.31-.2-0.64-0.36-1-0.55-0.54-.31-1.07-0.64-1.62-0.91-0.39-.2-0.8-0.36-1.2-0.54s-1-.45-1.47-0.65-0.85-.3-1.28-0.44-1-.34-1.45-0.47-0.88-.22-1.33-0.32-1-.23-1.46-0.32-0.9-.14-1.35-0.2-1-.14-1.48-0.18-0.9-.06-1.35-0.08-1,0-1.48,0-0.9,0-1.35,0-1,.06-1.49.11-0.88.1-1.33,0.16-1,.15-1.48.25-0.86.17-1.29,0.28-1,.25-1.47.39-0.84.25-1.25,0.39-1,.35-1.45.54-0.8.32-1.2,0.49-1,.46-1.43.7-0.76.38-1.13,0.59-0.94.57-1.4,0.87-0.7.43-1,.67-0.93.7-1.39,1.06c-0.31.24-.62,0.47-0.92,0.73-0.5.42-1,.89-1.44,1.35-0.24.23-.49,0.45-0.72,0.69-0.69.72-1.35,1.48-2,2.28a30.58,30.58,0,0,0-1.77,2.51c-0.28.44-.51,0.89-0.76,1.34s-0.46.77-.66,1.16a42.94,42.94,0,0,0-20.89-7.57c-20.24-1.75-46.51,3.1-71.23,23.29-16.38,13.38-18.54,25.54-16.93,34h0c0.08,0.42.17,0.83,0.27,1.24l0,0.18c0.09,0.38.2,0.75,0.3,1.11l0.07,0.23c0.11,0.35.22,0.69,0.34,1L299,143c0.12,0.32.24,0.63,0.36,0.94l0.1,0.25c0.12,0.3.25,0.59,0.38,0.87l0.11,0.23c0.13,0.28.26,0.54,0.39,0.8l0.11,0.21,0.4,0.74,0.11,0.19,0.39,0.67,0.11,0.18,0.37,0.59,0.11,0.16,0.35,0.52,0.1,0.14L302.7,150l0.09,0.13,0.27,0.35,0.08,0.1,0.23,0.28,0.05,0.06,0.18,0.21,0.05,0.06,0.09,0.11,0.05,0.05S285.18,168,305.61,234c7.83,25.34,19.82,49,41.12,55.55L324.06,354a18.19,18.19,0,0,0-15.78-9.14H293.83a18.21,18.21,0,0,0-17.54,13.36c-0.08.29-.16,0.58-0.22,0.87s-0.1.47-.14,0.71-0.11.67-.15,1-0.05.39-.07,0.59c-0.05.55-.08,1.1-0.08,1.67a18.1,18.1,0,0,0,2.75,9.58h-3.74L231.37,250.58a11.63,11.63,0,0,0-11-7.75h-41l70.27,136.74,145.57,0.21,87.24-96.2A42.1,42.1,0,0,0,459.48,253.88Z"/><polygon class="cls-3" points="313.86 360.29 349.3 259.64 320.37 249.46 286.87 344.62 313.86 360.29"/><polygon class="cls-4" points="416.5 382.8 401.84 210.55 347.76 233.82 324.84 278.7 324.46 383.69 416.5 382.8"/><path class="cls-5" d="M339.28,386.74h63.25l-2.91-47.85-18-16.26a11.94,11.94,0,0,0-10.3,3.71c-4.8,4.86-12.52,6.12-17,1.28s-11-8.37-16.21-7,2.21,55.56,2.21,55.56Z"/><path class="cls-6" d="M347.76,233.82l-6.13-33.16,46.47-70.82,13.74,80.72L401,226.38a33.61,33.61,0,0,1-31.84,31.87l-10,.51a11.27,11.27,0,0,1-11.84-11.56Z"/><path class="cls-7" d="M396.57,180.27c-3.29,9.6-14.34,29.18-26.77,39.8-8.9,7.6-17.48,8.56-23.1,8l-5.07-27.44,18.84-28.71,31.22-21Z"/><path class="cls-4" d="M291.57,329.46l31.51,18.28A2.43,2.43,0,0,1,324,351l-5.34,9.77a2.47,2.47,0,0,1-3.44.91L283.5,342.57a2.43,2.43,0,0,1-.82-3.36l5.55-8.94A2.47,2.47,0,0,1,291.57,329.46Z"/><path class="cls-8" d="M320.32,248.22l-9.93,62.26a39.89,39.89,0,0,0,.9,16.76l5.35,19.67,6.92-5Z"/><path class="cls-8" d="M388,351.41l0.45,35.33h57.85l-1.91-5.59,8.86-116.1a42.12,42.12,0,0,0-23.68-41.13l-27.69-13.37-15,56.12,0.2,15.57-5.28,33.1a39.9,39.9,0,0,0,.9,16.76Z"/><path class="cls-8" d="M440,386.74l-4.41-9.59,14.25-117-42.09,54.73s-0.35,27.14-1.94,23.74-4.32-18.58-4.32-18.58l-7.21,34.24-3.44,32.43H440Z"/><path class="cls-3" d="M388,351.41l0.45,35.33h8c2-5.43,3.84-10.67,4.81-13.9,2.75-9.12-.43-28.12-1.59-34-0.68-3.44,1.18-17.1,2.81-27.7L404.6,298l-6.76-24.13L387,283l-5.16,32.36a39.9,39.9,0,0,0,.9,16.76Z"/><path class="cls-8" d="M343.53,386.74l1-36.63-4.48-16.46a39.89,39.89,0,0,1-.9-16.76l7.62-47.77,1-35.3-1.7-9.2-25.75,23.6-5.16,138.52h28.38Z"/><path class="cls-8" d="M318.25,346.75c-0.24,4.08-1.91,22.41-1.91,22.41l-0.39,17.59h26.77l-1.23-17.19-13.84-44.42a23.58,23.58,0,0,1-8.13,1.9c-5,.34-7.31-1.29-7.31-1.29S318.48,342.66,318.25,346.75Z"/><path class="cls-9" d="M263.88,314.91h14.45a18.21,18.21,0,0,1,18.21,18.21h0a18.21,18.21,0,0,1-18.21,18.21H263.88a18.21,18.21,0,0,1-18.21-18.21h0A18.21,18.21,0,0,1,263.88,314.91Z"/><path class="cls-3" d="M326.48,300.93l11.73-25.27L343.77,288h0l-4.6,28.86a39.9,39.9,0,0,0,.9,16.76l4.48,16.46-0.81,29.46s-9.9-26.06-15-41S326.48,300.93,326.48,300.93Z"/><polygon class="cls-3" points="410.79 215.2 402.32 270.12 386.96 282.98 386.88 266.67 401.84 210.55 410.79 215.2"/><polygon class="cls-10" points="341.66 228.66 336.1 270.94 343.77 288.03 346.79 269.12 347.76 233.82 346.06 224.62 341.66 228.66"/><path class="cls-11" d="M296.54,333.12a18.11,18.11,0,0,0-1.75-7.76c-1.41,2.84-4.44,6.74-10.88,8.92-9.66,3.26-30.93,4.19-37.37-6.73a18.21,18.21,0,0,0,17.34,23.77h14.45A18.21,18.21,0,0,0,296.54,333.12Z"/><path class="cls-12" d="M180.93,342.7H304.07a4.64,4.64,0,0,1,4.64,4.64v9.38a0,0,0,0,1,0,0H180.93a0,0,0,0,1,0,0v-14A0,0,0,0,1,180.93,342.7Z"/><path class="cls-12" d="M249.64,356.72H62.81l-51-143.84H190.46a11.63,11.63,0,0,1,11,7.75Z"/><path class="cls-5" d="M233.85,356.72H47L0.56,225.59a9.53,9.53,0,0,1,9-12.72H174.67a11.63,11.63,0,0,1,11,7.75Z"/><path class="cls-4" d="M167.56,229.46H73a3.83,3.83,0,0,1-3.83-3.83h0A3.83,3.83,0,0,1,73,221.81h94.56a3.83,3.83,0,0,1,3.83,3.83h0A3.83,3.83,0,0,1,167.56,229.46Z"/><path class="cls-4" d="M56,229.46H19.47a3.83,3.83,0,0,1-3.83-3.83h0a3.83,3.83,0,0,1,3.83-3.83H56a3.83,3.83,0,0,1,3.83,3.83h0A3.83,3.83,0,0,1,56,229.46Z"/><path class="cls-13" d="M223.34,327s-69,7.32-123.5-11.12-87-55.61-87-55.61L47,356.72H233.85Z"/><rect class="cls-14" x="18.96" y="356.72" width="453.41" height="30.87" rx="2.68" ry="2.68"/><path class="cls-15" d="M403.61,195.07a13.34,13.34,0,0,1,6,4.94,19.47,19.47,0,0,1,2.69,8.91s-3-6-5.54-8.14a48.48,48.48,0,0,0-5.51-3.83Z"/><path class="cls-15" d="M404.59,189.38s7.1,2.33,11.36,5.85c5.74,4.73,6.7,12.91,6.7,12.91s-5.9-9-11.9-11.33a17.78,17.78,0,0,0-10.4-.93Z"/><path class="cls-15" d="M422.87,49.19a30.19,30.19,0,0,1,1.81,46.18,33.89,33.89,0,0,0,4.48-2.25,21.11,21.11,0,0,0,6.62-6.5s-2.27,12.08-12.86,17.31c-7.27,3.59-5.59-1.13-3.81-4.46A30.38,30.38,0,1,1,422.87,49.19Z"/><path class="cls-16" d="M426.52,75.11a50.74,50.74,0,0,0,5.09-14.85,30.05,30.05,0,0,1-6.93,35.12,33.89,33.89,0,0,0,4.48-2.25,21.11,21.11,0,0,0,6.62-6.5s-2.27,12.08-12.86,17.31c-7.27,3.59-5.59-1.13-3.81-4.46a30.41,30.41,0,0,1-8.09,3.16,50.49,50.49,0,0,1-.85-12.93S419.11,89.75,426.52,75.11Z"/><path class="cls-17" d="M380.2,54.3a30.39,30.39,0,0,1,40.17-6.87c0.33,2.53.41,6.92-1.31,9.35-6.35,9-23.57,10.63-23.57,10.63s5.51,2.22,9.74,1.72a80.62,80.62,0,0,0,8.18-1.43s-7.08,6.79-20.66,6.95c-5.21.06-12.6,1.49-18.89,1.53A30.27,30.27,0,0,1,380.2,54.3Z"/><path class="cls-18" d="M388.4,70.79s35.84,12.13,43.83,60.59c7,42.48-30.75,66.37-30.75,66.37L382.4,92.84Z"/><path class="cls-6" d="M334.81,261.11h0c38.24-4.47,69.66-44.24,67.55-76.49l-14-113.83-1.7-2.31-89.37,8.9-23.48,44s-18.62,16.64,1.81,82.73C285.47,235.85,301.8,265,334.81,261.11Z"/><path class="cls-18" d="M397.31,47.93s5.06-1.54,9,0,2.32,6.9-2,10.49-12.78,3.29-14.83-1.2S394.58,48.47,397.31,47.93Z"/><circle class="cls-15" cx="340.39" cy="172.29" r="6.92" transform="translate(-17.71 40.72) rotate(-6.67)"/><circle class="cls-15" cx="287.25" cy="178.5" r="6.92" transform="translate(-18.79 34.58) rotate(-6.67)"/><circle class="cls-4" cx="289.07" cy="176.2" r="2.65" transform="translate(-18.52 34.79) rotate(-6.67)"/><path class="cls-15" d="M324.62,145a10.86,10.86,0,0,1,.56-1.38,16.63,16.63,0,0,1,2.12-3.35,15,15,0,0,1,4.33-3.68,13.42,13.42,0,0,1,3-1.24,16.26,16.26,0,0,1,1.65-.33l0.85-.1,0.81-.05a22.57,22.57,0,0,1,6.47.56,16,16,0,0,1,5.21,2.24,12.25,12.25,0,0,1,2.93,2.7,6.74,6.74,0,0,1,.8,1.27,8.57,8.57,0,0,0-1-1.06,15,15,0,0,0-3.15-2.16,18.61,18.61,0,0,0-5-1.69,25.85,25.85,0,0,0-3-.36,27.56,27.56,0,0,0-3.11,0l-0.81,0-0.75.07a14.84,14.84,0,0,0-1.49.27,13.41,13.41,0,0,0-2.77,1,16.76,16.76,0,0,0-4.31,3.09,22.24,22.24,0,0,0-2.49,2.93C324.89,144.5,324.62,145,324.62,145Z"/><path class="cls-15" d="M299.81,153.23a21.87,21.87,0,0,1-4,3,25.09,25.09,0,0,1-4.64,2.25,19.56,19.56,0,0,1-5.86,1.19,16.54,16.54,0,0,1-3.07-.18,26.52,26.52,0,0,1-2.87-.57,22,22,0,0,1-2.6-.9,17.06,17.06,0,0,1-2.19-1.16,12,12,0,0,1-1.65-1.28,9.28,9.28,0,0,1-1.09-1.18,5,5,0,0,1-.71-1.19,7.66,7.66,0,0,0,1,.94,14.14,14.14,0,0,0,3,1.83,18.45,18.45,0,0,0,2.15.86,25.17,25.17,0,0,0,2.49.69c0.87,0.2,1.76.36,2.74,0.49a14.47,14.47,0,0,0,2.81.21,20.4,20.4,0,0,0,2.82-.25,25.79,25.79,0,0,0,2.71-.61,30.72,30.72,0,0,0,4.65-1.77c1.33-.62,2.41-1.22,3.15-1.66S299.81,153.23,299.81,153.23Z"/><path class="cls-15" d="M340.39,172.29l0.64-.1c0.4-.06,1-0.18,1.62-0.33,0.33-.08.68-0.17,1-0.28s0.73-.26,1.12-0.38,0.77-.31,1.14-0.5a9.06,9.06,0,0,0,1.1-.63,7.88,7.88,0,0,0,1-.74,10,10,0,0,0,.91-0.83c0.3-.27.52-0.6,0.77-0.87a8.43,8.43,0,0,0,.63-0.86,9,9,0,0,0,.51-0.77c0.13-.24.26-0.45,0.36-0.63,0.21-.35.35-0.55,0.35-0.55s0,0.23-.07.65c0,0.21-.06.46-0.12,0.75a4.74,4.74,0,0,1-.28.94,5.1,5.1,0,0,1-.46,1.08,7.51,7.51,0,0,1-.7,1.13,7.31,7.31,0,0,1-1,1.06,7.06,7.06,0,0,1-1.18.91,7.73,7.73,0,0,1-1.31.69,8.91,8.91,0,0,1-3.81.69A6.87,6.87,0,0,1,340.39,172.29Z"/><circle class="cls-4" cx="342.21" cy="169.99" r="2.65" transform="translate(-17.44 40.92) rotate(-6.67)"/><path class="cls-15" d="M287.25,178.5a6.87,6.87,0,0,1-2.18,1,8.91,8.91,0,0,1-3.87.21,7.73,7.73,0,0,1-1.43-.36,7.06,7.06,0,0,1-1.35-.61,7.3,7.3,0,0,1-1.18-.81,7.51,7.51,0,0,1-.94-0.93,5.1,5.1,0,0,1-.7-0.95,4.75,4.75,0,0,1-.49-0.85c-0.12-.27-0.21-0.51-0.28-0.7-0.15-.39-0.21-0.61-0.21-0.61s0.18,0.16.47,0.45,0.32,0.32.5,0.53a9,9,0,0,0,.68.63,8.43,8.43,0,0,0,.81.69c0.31,0.21.6,0.48,1,.67a10,10,0,0,0,1.07.6,7.89,7.89,0,0,0,1.17.48,9.08,9.08,0,0,0,1.22.35c0.41,0.1.82,0.15,1.22,0.22s0.8,0.11,1.18.11,0.74,0,1.08,0c0.67,0,1.25,0,1.65-.05Z"/><path class="cls-9" d="M383.41,176.17c-4.47-30-21.45-52.84-21.45-52.84s12.67-8.43,32.65-1.91l7.75,63.2c1.86,28.49-22.45,62.83-54.5,73.53C371.55,239,387.84,205.93,383.41,176.17Z"/><path class="cls-18" d="M388.4,70.79S349.37,100,349.22,111s20,12,32.54,25.3a98.37,98.37,0,0,1,18.31,28l-2.43-57.5Z"/><path class="cls-18" d="M362.79,85.9a101,101,0,0,0-17.88,20.87s-22.08-4-40.75-.07a69.35,69.35,0,0,0-30.3,14.66s-20-21,11-46.34c24.72-20.19,51-25,71.23-23.29A43.67,43.67,0,0,1,386.7,68.49S378.21,72.53,362.79,85.9Z"/><path class="cls-17" d="M387.19,119.19h0c0.9-.37,1.78-0.78,2.63-1.22l0.06,0a22.79,22.79,0,0,0,2.43-1.49c0.64-.45,1.23-0.9,1.81-1.35l0.64-.52,1-.8,0.73-.65,0.64-.61c0.26-.25.52-0.5,0.76-0.74,6.12-6.24,6.74-11.55,6.74-11.55a34.68,34.68,0,0,1-.37,13.16c-1.64,6.39-3.48,9-3.48,9s11.9,3.86,17.89-2.09c4-4,4.22-11.92,3.69-18.25a90.43,90.43,0,0,1,9.92,29.36c7,42.48-30.75,66.37-30.75,66.37L393,150.91a96.45,96.45,0,0,0-11.2-14.57c-6.53-6.94-15.11-10.53-21.83-13.93C359.93,122.41,375.61,123.92,387.19,119.19Z"/><path class="cls-19" d="M399.9,187.08l-4.7-31.24a16.59,16.59,0,1,1,4.53,31.47Z"/><path class="cls-17" d="M384.06,138.88h0a64.33,64.33,0,0,1,11.58,26.75l1.28,7,1.86-38.82Z"/><path class="cls-20" d="M369,103.21s1.17-7.13,9.8-13,14.59-6.83,18.76-4.38c4.71,2.77-2.84,18.4-14,22.64C373.82,112.19,368,109.9,369,103.21Z"/><path class="cls-20" d="M301.7,69.7S306.42,62.55,318,60s17.93-.88,20.87,3.61c3.31,5.07-12,18.55-25.19,18.17C302,81.5,297.36,76.45,301.7,69.7Z"/><path class="cls-17" d="M270.12,98.82C274,87.43,288,76.4,288,76.4S280,89.27,289.72,91s49.39-2,60.46-15.42,1.59-19,1.59-19a64.18,64.18,0,0,1,18.78,3.53,34.62,34.62,0,0,1,13.73,9.76c-3.54,2.09-10.87,6.87-21.49,16.07a101,101,0,0,0-17.88,20.87s-22.08-4-40.75-.07a69.35,69.35,0,0,0-30.3,14.66A26.35,26.35,0,0,1,268,109.07,43.56,43.56,0,0,1,270.12,98.82Z"/><path class="cls-21" d="M345,259.05c-4.06-12.68-11-34.28-11.51-34.43-0.66-.22-33.34,7.79-33.34,7.79s1.28,9.35,6.71,12.86,16.08,3,16.08,3l4.65,13.18a48.6,48.6,0,0,0,7.25-.3A64.27,64.27,0,0,0,345,259.05Z"/><path class="cls-9" d="M385.71,356.92q-0.82,0-1.66-.06a23.05,23.05,0,0,1-20.19-15L326.6,243.52a0.66,0.66,0,0,0-.62-0.43H313.44a13.63,13.63,0,0,1-13.63-13.63h0a13.63,13.63,0,0,1,13.63-13.63H326a28.07,28.07,0,0,1,26.11,18l34.2,90.27,14-25.78,23.94,13-18.18,33.37A23,23,0,0,1,385.71,356.92Z"/><path class="cls-3" d="M441.66,243.4a15.33,15.33,0,0,0-20.56,6.88l-34.4,69,7.1-2.91,20.3,12.49,0.18,3.83L448.54,264A15.33,15.33,0,0,0,441.66,243.4Z"/><ellipse class="cls-22" cx="436.67" cy="255.11" rx="9.77" ry="11.55" transform="translate(111.88 642.76) rotate(-80.34)"/><path class="cls-4" d="M393.4,305.27L424,325a2.43,2.43,0,0,1,.78,3.3L419,337.79a2.47,2.47,0,0,1-3.48.76L384.74,318a2.43,2.43,0,0,1-.67-3.39l6-8.68A2.47,2.47,0,0,1,393.4,305.27Z"/><path class="cls-11" d="M385.71,356.92a23,23,0,0,0,13.19-4.09c-22.07-.23-29.8-16.13-29.8-16.13L329.77,233.24s-13.06-.61-19.88-1.46c-4-.5-7.48-3.36-9.65-5.64a13.58,13.58,0,0,0,13.2,17H326a0.66,0.66,0,0,1,.62.43l37.26,98.36a23.05,23.05,0,0,0,20.19,15Q384.88,356.92,385.71,356.92Z"/><ellipse class="cls-6" cx="270.56" cy="323.35" rx="13.2" ry="6.67"/><ellipse class="cls-6" cx="323.56" cy="223.03" rx="13.2" ry="6.15"/><circle class="cls-1" cx="539.57" cy="47.32" r="43.53"/><circle class="cls-1" cx="450.15" cy="17.87" r="17.87"/></svg>